<?xml version="1.0" encoding="UTF-8"?>
<svg data-bbox="10.489 3.905 381.615 191.497" viewBox="0 0 400 200.656" height="200.656" width="400" xmlns="http://www.w3.org/2000/svg" data-type="shape">
    <g>
        <path fill-rule="evenodd" d="M52.161 5.974c-22.48 5.449-35.69 19.143-39.876 41.336-3.046 16.15-1.978 100.934 1.404 111.379 6.549 20.228 19.779 31.402 42.062 35.522 3.772.698 49.298 1.072 106.885.879l100.315-.336V76.721l-7.089-.403c-9.718-.553-9.262-3.136-9.285 52.568l-.02 49.542-94.098-.362-94.098-.361-7.221-3.388c-9.161-4.297-15.258-10.394-19.556-19.555l-3.387-7.221-.414-44.59c-.549-59.254 1.853-67.86 21.654-77.576l7.612-3.736h288.525l6.874 3.108c7.564 3.42 14.347 10.142 18.971 18.8 4.629 8.67 5.399 97.288.949 109.182-6.364 17.011-19.781 24.75-44.046 25.408-17.5.475-17.437.44-17.484 9.625-.038 7.418.431 7.648 15.532 7.64 38.389-.021 58.998-13.646 64.326-42.528 1.848-10.023 1.89-94.213.051-105.543-3.567-21.985-18.041-36.586-41.239-41.603-11.929-2.58-286.628-2.353-297.347.246m19.256 48.132c-.348.906-.477 22.005-.287 46.886l.345 45.238 6.332.403c10.566.674 10.062 3.103 10.062-48.433V52.459h-7.91c-5.139 0-8.132.577-8.542 1.647m51.206 12.315C95.868 89.875 97.049 88.586 97.049 94.339c0 4.451 1.081 6.317 8.197 14.16 4.508 4.969 14.088 15.663 21.29 23.765l13.093 14.731 7.877-.383c12.247-.595 12.321-.429-12.933-29.179-4.409-5.019-10.524-11.867-13.589-15.218-7.664-8.378-8.009-7.724 14.754-27.928 23.431-20.797 23.993-21.862 11.475-21.745l-8.852.084-15.738 13.795m47.384-11.011c-1.041 3.885-1.031 69.734.011 76.041 2.831 17.124 27.101 22.359 25.166 5.429-.338-2.959-1.343-4.034-4.692-5.02l-4.262-1.255V52.459h-7.716c-6.893 0-7.801.315-8.507 2.951m38.78 4.59.393 7.541 7.089.403c7.919.451 9.253-.581 9.285-7.181.036-7.528-.839-8.304-9.366-8.304h-7.794l.393 7.541m64.983 16.814c-.54.55-.983 4.085-.983 7.854 0 8.487-.092 8.447 19.189 8.447 18.212 0 22.005 1.44 24.079 9.14 3.684 13.682-1.509 17.553-24.681 18.401l-17.931.655v15.738l19.016-.006c31.421-.011 38.689-5.676 38.689-30.158 0-24.1-6.892-29.734-37.378-30.558-10.459-.283-19.459-.064-20 .487m-64.371 6.683c-1.848 1.848-.958 48.847 1.014 53.566 2.618 6.266 9.03 9.973 16.472 9.523l5.902-.356.397-6.905c.389-6.763.315-6.92-3.607-7.705l-4.003-.8-.018-21.148c-.023-27.58.142-27.049-8.441-27.049-3.763 0-7.235.393-7.716.874"/>
    </g>
</svg>
