<svg id="svg" version="1.1" xmlns="http://www.w3.org/2000/svg" xmlns:xlink="http://www.w3.org/1999/xlink" width="400" height="200" viewBox="0, 0, 400,200"><g id="svgg"><path id="path0" d="M44.375 70.125 C 45.819 70.152,48.181 70.152,49.625 70.125 C 51.069 70.097,49.887 70.074,47.000 70.074 C 44.112 70.074,42.931 70.097,44.375 70.125 M56.625 70.118 C 56.831 70.157,57.169 70.157,57.375 70.118 C 57.581 70.078,57.413 70.045,57.000 70.045 C 56.587 70.045,56.419 70.078,56.625 70.118 M63.125 70.125 C 65.990 70.150,70.677 70.150,73.542 70.125 C 76.406 70.099,74.063 70.078,68.333 70.078 C 62.604 70.078,60.260 70.099,63.125 70.125 M81.667 75.407 C 81.667 75.571,82.380 76.676,82.444 76.611 C 82.482 76.573,82.353 76.270,82.157 75.938 C 81.833 75.389,81.667 75.209,81.667 75.407 M84.846 80.917 C 85.052 81.283,85.292 81.658,85.379 81.750 C 85.629 82.012,85.058 80.956,84.748 80.583 C 84.596 80.400,84.640 80.550,84.846 80.917 M338.917 87.935 C 336.846 88.232,334.026 89.625,332.589 91.061 C 326.682 96.963,329.391 108.963,336.887 110.106 C 337.270 110.164,337.688 110.295,337.815 110.396 C 338.148 110.660,343.575 110.630,344.518 110.358 C 346.750 109.717,346.588 109.826,346.540 108.997 C 346.432 107.131,345.977 105.636,345.550 105.744 C 338.850 107.425,334.830 104.946,334.834 99.135 C 334.838 93.803,339.363 90.772,344.729 92.505 C 346.081 92.942,345.869 93.152,346.490 90.761 C 347.042 88.635,347.037 88.599,346.167 88.404 C 345.938 88.352,345.563 88.229,345.333 88.131 C 344.919 87.952,339.871 87.798,338.917 87.935 M237.446 88.109 C 237.384 88.171,237.333 93.160,237.333 99.194 L 237.333 110.167 239.917 110.167 L 242.500 110.167 242.500 105.836 L 242.500 101.506 246.458 101.461 L 250.417 101.417 250.417 99.333 L 250.417 97.250 246.458 97.205 L 242.500 97.161 242.500 94.747 L 242.500 92.333 246.755 92.333 L 251.010 92.333 250.963 90.208 L 250.917 88.083 244.238 88.040 C 240.565 88.016,237.508 88.047,237.446 88.109 M254.615 88.107 C 254.552 88.170,254.500 93.160,254.500 99.194 L 254.500 110.167 257.168 110.167 L 259.836 110.167 259.793 99.125 L 259.750 88.083 257.240 88.037 C 255.860 88.012,254.679 88.044,254.615 88.107 M263.833 99.083 L 263.833 110.167 266.272 110.167 L 268.711 110.167 268.625 102.395 L 268.539 94.624 269.918 97.437 C 270.676 98.984,271.577 100.737,271.918 101.333 C 272.260 101.929,272.764 102.829,273.039 103.333 C 273.314 103.837,273.746 104.625,274.000 105.083 C 274.534 106.048,275.389 107.609,275.936 108.618 C 276.145 109.004,276.442 109.510,276.594 109.743 L 276.872 110.167 279.604 110.167 L 282.336 110.167 282.293 99.125 L 282.250 88.083 279.917 88.083 L 277.583 88.083 277.529 93.500 C 277.495 96.995,277.547 99.571,277.678 100.762 C 277.927 103.032,277.855 103.312,277.345 102.056 C 276.798 100.711,275.233 97.594,274.053 95.500 C 272.693 93.085,272.785 93.246,271.845 91.644 C 271.380 90.852,271.000 90.163,271.000 90.114 C 271.000 90.064,270.729 89.569,270.397 89.012 L 269.794 88.000 266.814 88.000 L 263.833 88.000 263.833 99.083 M291.179 89.292 C 290.976 90.002,290.745 90.771,290.666 91.000 C 290.435 91.672,289.563 94.498,289.252 95.583 C 289.095 96.133,288.903 96.771,288.827 97.000 C 288.750 97.229,288.487 98.092,288.241 98.917 C 287.735 100.620,286.881 103.378,286.668 104.000 C 286.589 104.229,286.363 104.979,286.166 105.667 C 285.828 106.848,285.702 107.261,285.078 109.235 C 284.744 110.290,284.662 110.258,287.608 110.200 L 290.133 110.150 290.299 109.700 C 290.462 109.261,290.570 108.880,291.341 106.038 L 291.715 104.659 294.789 104.705 L 297.863 104.750 298.654 107.376 C 299.090 108.820,299.487 110.042,299.537 110.092 C 299.655 110.211,304.841 110.215,304.959 110.097 C 305.046 110.010,304.620 108.419,304.330 107.750 C 304.251 107.567,304.135 107.157,304.072 106.839 C 304.009 106.521,303.903 106.146,303.836 106.005 C 303.697 105.713,303.171 104.053,302.750 102.583 C 302.593 102.033,302.257 100.946,302.004 100.167 C 301.750 99.388,301.412 98.300,301.252 97.750 C 300.957 96.736,300.092 93.930,299.839 93.167 C 299.763 92.938,299.425 91.850,299.087 90.750 C 298.750 89.650,298.406 88.581,298.324 88.375 C 298.175 88.004,298.141 88.000,294.861 88.000 L 291.549 88.000 291.179 89.292 M307.833 99.083 L 307.833 110.167 310.277 110.167 L 312.721 110.167 312.621 102.375 C 312.546 96.583,312.568 94.690,312.706 95.000 C 313.090 95.861,315.524 100.745,315.652 100.911 C 315.808 101.113,316.835 102.991,317.569 104.417 C 317.852 104.967,318.121 105.454,318.167 105.500 C 318.260 105.593,318.325 105.709,319.333 107.583 C 319.728 108.317,320.228 109.198,320.444 109.542 L 320.838 110.167 323.576 110.167 L 326.315 110.167 326.283 99.125 L 326.250 88.083 323.917 88.083 L 321.583 88.083 321.583 94.417 C 321.583 97.900,321.635 101.313,321.698 102.000 L 321.812 103.250 320.922 101.250 C 319.905 98.965,319.226 97.643,317.501 94.583 C 316.829 93.392,315.964 91.854,315.579 91.167 C 314.442 89.138,314.210 88.731,313.976 88.356 C 313.762 88.014,313.636 88.000,310.793 88.000 L 307.833 88.000 307.833 99.083 M349.874 99.085 L 349.917 110.174 356.792 110.172 C 360.573 110.171,363.742 110.170,363.833 110.169 C 363.935 110.167,364.000 109.360,364.000 108.083 L 364.000 106.000 359.500 106.000 L 355.000 106.000 355.000 103.500 L 355.000 101.000 359.000 101.000 L 363.000 101.000 363.000 98.917 L 363.000 96.833 359.000 96.833 L 355.000 96.833 355.000 94.586 L 355.000 92.339 359.292 92.294 L 363.583 92.250 363.583 90.167 L 363.583 88.083 356.707 88.040 L 349.831 87.996 349.874 99.085 M81.936 90.999 C 81.144 91.599,80.977 91.770,81.417 91.531 C 81.799 91.323,82.792 90.513,82.667 90.511 C 82.621 90.510,82.292 90.730,81.936 90.999 M77.622 91.256 C 77.280 91.488,77.000 91.715,77.000 91.758 C 77.000 91.802,77.300 91.640,77.667 91.397 C 78.249 91.012,78.446 90.833,78.289 90.833 C 78.264 90.833,77.964 91.024,77.622 91.256 M29.343 91.604 C 29.147 91.937,29.014 92.236,29.047 92.269 C 29.080 92.302,29.276 92.030,29.481 91.665 C 29.948 90.834,29.828 90.782,29.343 91.604 M295.334 94.780 C 295.417 95.163,295.597 95.838,295.733 96.280 C 296.527 98.864,296.805 99.799,296.900 100.208 L 297.006 100.667 294.753 100.667 C 292.545 100.667,292.157 100.565,292.616 100.106 C 292.680 100.043,292.748 99.881,292.768 99.747 C 292.787 99.613,292.952 99.034,293.134 98.460 C 293.316 97.886,293.749 96.260,294.097 94.846 L 294.730 92.274 294.956 93.179 C 295.080 93.676,295.250 94.397,295.334 94.780 M28.352 93.335 C 28.147 93.701,28.014 94.000,28.056 94.000 C 28.169 94.000,28.858 92.802,28.786 92.731 C 28.753 92.698,28.558 92.970,28.352 93.335 M92.417 94.000 C 92.559 94.275,92.713 94.500,92.759 94.500 C 92.804 94.500,92.726 94.275,92.583 94.000 C 92.441 93.725,92.287 93.500,92.241 93.500 C 92.196 93.500,92.274 93.725,92.417 94.000 M26.828 95.925 C 26.627 96.251,26.495 96.550,26.535 96.590 C 26.575 96.630,26.776 96.364,26.981 95.998 C 27.444 95.174,27.327 95.118,26.828 95.925 M73.483 96.855 C 72.697 97.414,72.233 97.819,72.670 97.564 C 73.167 97.275,74.333 96.455,74.333 96.395 C 74.333 96.272,74.204 96.343,73.483 96.855 M68.955 97.256 C 68.613 97.488,68.333 97.715,68.333 97.758 C 68.333 97.802,68.633 97.640,69.000 97.397 C 69.582 97.012,69.779 96.833,69.622 96.833 C 69.597 96.833,69.297 97.024,68.955 97.256 M25.908 97.546 C 25.544 98.146,25.312 98.667,25.408 98.667 C 25.503 98.667,26.347 97.125,26.285 97.063 C 26.256 97.034,26.086 97.251,25.908 97.546 M69.250 99.773 C 68.195 100.515,67.908 100.800,68.667 100.351 C 69.258 100.002,70.320 99.175,70.167 99.183 C 70.121 99.185,69.708 99.451,69.250 99.773 M95.663 99.625 C 95.795 99.896,95.795 100.104,95.663 100.375 C 95.489 100.735,95.492 100.737,95.741 100.426 C 95.883 100.249,96.000 100.057,96.000 100.000 C 96.000 99.943,95.883 99.751,95.741 99.574 C 95.492 99.263,95.489 99.265,95.663 99.625 M64.917 100.098 L 64.417 100.528 64.958 100.169 C 65.256 99.972,65.500 99.778,65.500 99.739 C 65.500 99.614,65.429 99.657,64.917 100.098 M95.005 101.544 C 94.656 102.179,94.651 102.216,94.953 101.917 C 95.139 101.733,95.263 101.553,95.230 101.515 C 95.197 101.478,95.255 101.345,95.359 101.220 C 95.462 101.094,95.513 100.957,95.470 100.915 C 95.427 100.872,95.218 101.155,95.005 101.544 M25.333 101.436 C 25.333 101.528,25.443 101.749,25.578 101.926 C 25.713 102.104,25.823 102.175,25.823 102.083 C 25.823 101.992,25.713 101.771,25.578 101.593 C 25.443 101.415,25.333 101.345,25.333 101.436 M64.267 103.246 C 63.281 103.948,63.074 104.153,63.750 103.763 C 64.294 103.448,65.301 102.669,65.166 102.667 C 65.120 102.667,64.715 102.927,64.267 103.246 M60.289 103.256 C 59.947 103.488,59.667 103.715,59.667 103.758 C 59.667 103.802,59.967 103.640,60.333 103.397 C 60.916 103.012,61.112 102.833,60.955 102.833 C 60.931 102.833,60.631 103.024,60.289 103.256 M93.750 103.667 C 93.603 103.951,93.565 104.167,93.662 104.167 C 93.756 104.167,93.833 104.060,93.833 103.929 C 93.833 103.798,93.951 103.573,94.095 103.429 C 94.239 103.285,94.279 103.167,94.183 103.167 C 94.087 103.167,93.892 103.392,93.750 103.667 M93.150 104.708 C 93.042 104.915,92.770 105.402,92.545 105.792 C 92.319 106.181,92.172 106.500,92.218 106.500 C 92.311 106.500,93.183 105.080,93.370 104.625 C 93.542 104.205,93.380 104.266,93.150 104.708 M27.718 105.583 C 27.859 105.858,28.099 106.233,28.252 106.417 C 28.404 106.600,28.360 106.450,28.154 106.083 C 27.700 105.274,27.360 104.884,27.718 105.583 M56.250 106.098 L 55.750 106.528 56.292 106.169 C 56.590 105.972,56.833 105.778,56.833 105.739 C 56.833 105.614,56.763 105.657,56.250 106.098 M60.201 106.072 C 59.426 106.619,59.317 106.775,59.971 106.401 C 60.276 106.226,60.604 105.990,60.700 105.875 C 60.946 105.581,60.831 105.626,60.201 106.072 M91.950 106.792 C 91.912 106.860,91.670 107.292,91.413 107.750 C 91.156 108.208,91.023 108.508,91.117 108.417 C 91.358 108.183,92.218 106.667,92.109 106.667 C 92.060 106.667,91.988 106.723,91.950 106.792 M90.242 109.783 C 89.895 110.407,89.503 111.085,89.370 111.292 C 89.237 111.498,89.203 111.667,89.295 111.667 C 89.386 111.667,89.505 111.535,89.559 111.375 C 89.659 111.080,89.926 110.606,90.644 109.450 C 90.861 109.101,91.001 108.778,90.955 108.733 C 90.909 108.687,90.588 109.160,90.242 109.783 M29.837 109.292 C 29.839 109.360,29.994 109.604,30.180 109.833 L 30.520 110.250 30.256 109.708 C 30.005 109.194,29.829 109.019,29.837 109.292 M50.564 110.029 C 49.887 110.538,49.693 110.739,50.083 110.525 C 50.517 110.288,51.280 109.675,51.147 109.670 C 51.091 109.668,50.829 109.830,50.564 110.029 M51.968 111.792 C 51.940 111.860,51.955 116.004,52.002 121.000 L 52.088 130.083 52.127 120.875 C 52.163 112.563,52.142 111.370,51.968 111.792 M88.774 112.375 L 88.476 112.917 88.821 112.523 C 89.120 112.183,89.271 111.833,89.119 111.833 C 89.093 111.833,88.938 112.077,88.774 112.375 M46.125 113.096 C 45.781 113.321,45.500 113.539,45.500 113.580 C 45.500 113.690,46.651 112.993,46.760 112.817 C 46.890 112.607,46.833 112.632,46.125 113.096 M49.192 113.668 C 48.811 113.943,48.500 114.210,48.500 114.260 C 48.500 114.338,49.439 113.699,49.908 113.301 C 50.303 112.966,49.815 113.216,49.192 113.668 M44.750 114.104 C 44.450 114.359,44.389 114.461,44.597 114.357 C 44.903 114.205,45.476 113.657,45.312 113.673 C 45.278 113.676,45.025 113.870,44.750 114.104 M87.683 114.203 C 87.042 115.228,86.675 116.000,86.828 116.000 C 86.923 116.000,87.000 115.928,87.000 115.841 C 87.000 115.753,87.228 115.294,87.508 114.820 C 87.992 113.998,88.144 113.465,87.683 114.203 M47.622 114.756 C 47.280 114.988,47.000 115.215,47.000 115.258 C 47.000 115.302,47.300 115.140,47.667 114.897 C 48.249 114.512,48.446 114.333,48.289 114.333 C 48.264 114.333,47.964 114.524,47.622 114.756 M33.340 115.250 C 33.340 115.342,33.494 115.604,33.682 115.833 C 33.908 116.110,33.965 116.138,33.850 115.917 C 33.569 115.373,33.338 115.072,33.340 115.250 M41.897 116.029 C 41.220 116.538,41.026 116.739,41.417 116.525 C 41.850 116.288,42.613 115.675,42.481 115.670 C 42.424 115.668,42.162 115.830,41.897 116.029 M86.450 116.292 C 86.412 116.360,86.167 116.792,85.905 117.250 C 85.598 117.790,85.530 118.003,85.715 117.855 C 85.872 117.729,86.000 117.532,86.000 117.417 C 86.000 117.302,86.104 117.121,86.232 117.015 C 86.360 116.909,86.503 116.675,86.550 116.495 C 86.635 116.167,86.581 116.056,86.450 116.292 M34.000 116.407 C 34.000 116.530,34.695 117.667,34.770 117.667 C 34.808 117.667,34.687 117.367,34.500 117.000 C 34.202 116.415,34.000 116.176,34.000 116.407 M43.583 117.598 L 43.083 118.028 43.625 117.669 C 43.923 117.472,44.167 117.278,44.167 117.239 C 44.167 117.114,44.096 117.157,43.583 117.598 M85.014 118.764 C 84.815 119.100,84.684 119.407,84.723 119.445 C 84.761 119.483,84.954 119.239,85.153 118.903 C 85.351 118.566,85.482 118.260,85.444 118.222 C 85.406 118.184,85.212 118.428,85.014 118.764 M40.218 119.929 L 39.750 120.358 40.292 119.981 C 40.590 119.774,40.833 119.581,40.833 119.552 C 40.833 119.420,40.649 119.533,40.218 119.929 M83.959 120.634 C 82.771 122.707,82.506 123.217,82.818 122.833 C 83.005 122.604,83.254 122.229,83.372 122.000 C 83.489 121.771,83.800 121.224,84.063 120.784 C 84.326 120.345,84.511 119.955,84.474 119.918 C 84.437 119.882,84.205 120.204,83.959 120.634 M38.333 123.942 C 38.896 124.968,39.333 125.635,39.333 125.468 C 39.333 125.312,37.985 123.000,37.894 123.000 C 37.851 123.000,38.049 123.424,38.333 123.942 M81.742 124.450 C 81.395 125.073,81.003 125.752,80.870 125.958 C 80.737 126.165,80.668 126.333,80.717 126.333 C 80.907 126.333,82.554 123.498,82.433 123.378 C 82.399 123.344,82.088 123.826,81.742 124.450 M39.503 125.865 C 39.499 126.016,40.178 127.167,40.271 127.167 C 40.310 127.167,40.230 126.960,40.094 126.708 C 39.754 126.081,39.506 125.727,39.503 125.865 M79.601 128.150 C 79.087 129.058,78.667 129.863,78.667 129.939 C 78.667 130.087,79.819 128.164,80.352 127.125 C 80.985 125.894,80.518 126.531,79.601 128.150 M40.840 128.250 C 40.840 128.342,40.994 128.604,41.182 128.833 C 41.408 129.110,41.465 129.138,41.350 128.917 C 41.069 128.373,40.838 128.072,40.840 128.250 " stroke="none" fill="#d37c64" fill-rule="evenodd"></path><path id="path1" d="M54.599 70.123 C 54.480 70.242,54.464 107.167,54.583 107.167 C 54.628 107.167,55.209 106.777,55.874 106.301 C 56.539 105.825,58.021 104.799,59.167 104.021 C 60.916 102.834,65.773 99.470,68.464 97.583 C 68.856 97.308,69.306 97.008,69.463 96.917 C 69.621 96.825,70.500 96.220,71.417 95.571 C 72.333 94.923,73.687 93.978,74.425 93.471 C 75.162 92.964,76.175 92.262,76.675 91.911 C 77.174 91.559,78.333 90.755,79.250 90.125 C 80.167 89.494,81.779 88.379,82.833 87.647 C 83.887 86.914,85.125 86.056,85.583 85.740 C 87.189 84.632,87.187 85.014,85.603 82.270 C 84.830 80.930,84.246 79.832,84.307 79.831 C 84.367 79.829,84.341 79.773,84.248 79.706 C 83.975 79.507,83.134 78.144,83.227 78.050 C 83.275 78.003,83.170 77.811,82.996 77.624 C 82.821 77.436,82.718 77.219,82.766 77.141 C 82.814 77.064,82.782 77.000,82.694 77.000 C 82.536 77.000,81.428 75.159,80.436 73.250 C 80.150 72.700,79.871 72.212,79.814 72.167 C 79.758 72.121,79.469 71.652,79.173 71.125 L 78.635 70.167 67.526 70.143 C 61.416 70.130,56.030 70.097,55.557 70.072 C 55.085 70.046,54.653 70.069,54.599 70.123 M41.702 70.423 C 41.584 70.557,41.530 70.667,41.583 70.667 C 41.636 70.667,41.488 70.947,41.256 71.289 C 41.024 71.631,40.833 72.000,40.833 72.108 C 40.833 72.217,40.777 72.331,40.708 72.361 C 40.640 72.392,40.396 72.778,40.167 73.219 C 39.938 73.661,39.616 74.167,39.452 74.344 C 39.288 74.522,39.213 74.669,39.285 74.672 C 39.357 74.675,39.271 74.787,39.093 74.922 C 38.915 75.057,38.823 75.167,38.889 75.167 C 39.022 75.167,38.480 76.209,37.786 77.288 C 37.537 77.676,37.333 78.072,37.333 78.169 C 37.333 78.265,37.221 78.387,37.084 78.439 C 36.947 78.492,36.877 78.602,36.927 78.684 C 36.978 78.766,36.928 78.833,36.815 78.833 C 36.703 78.833,36.656 78.878,36.711 78.933 C 36.765 78.988,36.590 79.390,36.322 79.826 C 36.053 80.263,35.833 80.688,35.833 80.770 C 35.833 80.853,35.643 81.126,35.410 81.377 C 35.177 81.628,35.026 81.833,35.074 81.833 C 35.240 81.833,33.374 85.012,33.094 85.206 C 32.996 85.273,32.974 85.329,33.044 85.331 C 33.114 85.332,32.982 85.632,32.752 85.997 C 32.522 86.362,32.333 86.691,32.333 86.730 C 32.333 86.787,30.650 89.703,29.581 91.500 C 29.444 91.729,29.057 92.419,28.719 93.033 C 28.374 93.662,28.028 94.105,27.928 94.048 C 27.830 93.992,27.804 94.007,27.871 94.080 C 28.002 94.225,27.401 95.381,25.726 98.214 L 24.663 100.011 25.807 101.964 C 26.436 103.038,27.685 105.192,28.584 106.750 C 30.460 110.005,31.845 112.388,33.895 115.885 C 34.690 117.242,35.290 118.435,35.228 118.535 C 35.166 118.636,35.189 118.673,35.278 118.617 C 35.368 118.562,35.605 118.853,35.805 119.264 L 36.168 120.012 37.292 119.223 C 37.911 118.790,38.867 118.125,39.418 117.746 C 39.968 117.367,40.906 116.721,41.501 116.309 C 42.096 115.897,43.187 115.145,43.925 114.638 C 44.662 114.131,45.654 113.444,46.128 113.111 C 46.602 112.777,47.461 112.180,48.037 111.784 C 48.612 111.388,49.533 110.742,50.083 110.349 C 50.633 109.955,51.289 109.510,51.541 109.359 L 51.998 109.083 51.999 89.625 L 52.000 70.167 46.958 70.173 C 42.750 70.178,41.881 70.220,41.702 70.423 M87.645 87.225 C 87.336 87.438,85.958 88.388,84.583 89.335 C 83.208 90.283,81.783 91.275,81.417 91.539 C 81.050 91.804,79.962 92.563,79.000 93.226 C 78.037 93.889,75.525 95.625,73.417 97.085 C 71.308 98.544,69.133 100.047,68.583 100.426 C 68.033 100.804,66.196 102.076,64.500 103.251 C 62.804 104.427,60.854 105.777,60.167 106.252 C 56.965 108.463,55.703 109.344,55.125 109.770 L 54.500 110.231 54.500 120.115 L 54.500 130.000 64.708 129.999 C 70.323 129.999,75.751 129.950,76.771 129.892 L 78.625 129.785 79.092 128.984 C 79.350 128.544,79.633 128.229,79.722 128.284 C 79.813 128.340,79.832 128.299,79.765 128.191 C 79.698 128.083,80.045 127.314,80.547 126.457 C 82.700 122.780,84.451 119.763,87.166 115.052 C 88.761 112.285,90.137 110.065,90.225 110.119 C 90.313 110.174,90.333 110.134,90.270 110.032 C 90.207 109.930,90.693 108.925,91.351 107.798 C 92.008 106.672,92.735 105.412,92.965 105.000 C 93.196 104.587,93.941 103.291,94.620 102.119 L 95.856 99.989 95.178 98.813 C 94.805 98.166,94.500 97.527,94.500 97.392 C 94.500 97.257,94.441 97.184,94.369 97.228 C 94.256 97.298,93.712 96.322,93.801 96.208 C 93.819 96.185,93.681 96.014,93.494 95.827 C 93.307 95.641,93.199 95.416,93.254 95.327 C 93.308 95.239,93.291 95.167,93.215 95.167 C 93.043 95.167,91.944 93.346,91.944 93.060 C 91.944 92.943,91.882 92.887,91.806 92.934 C 91.729 92.981,91.667 92.939,91.667 92.840 C 91.667 92.741,91.480 92.365,91.252 92.004 C 91.024 91.643,90.818 91.253,90.794 91.139 C 90.770 91.024,90.619 90.781,90.458 90.600 C 90.298 90.419,90.157 90.210,90.146 90.135 C 90.134 90.061,90.116 89.938,90.104 89.863 C 90.093 89.788,89.952 89.595,89.792 89.435 C 89.516 89.159,89.430 88.927,89.484 88.613 C 89.498 88.537,89.443 88.516,89.363 88.565 C 89.283 88.614,89.041 88.277,88.825 87.816 C 88.332 86.763,88.322 86.758,87.645 87.225 " stroke="none" fill="#b7413f" fill-rule="evenodd"></path><path id="path2" d="M52.167 89.609 L 52.167 109.134 51.625 109.469 C 51.096 109.797,49.674 110.777,47.833 112.083 C 47.329 112.440,46.504 113.015,46.000 113.361 C 45.496 113.706,44.671 114.275,44.167 114.625 C 43.663 114.974,42.537 115.749,41.667 116.347 C 40.796 116.945,39.671 117.726,39.167 118.083 C 38.662 118.440,37.819 119.020,37.292 119.372 C 36.188 120.107,36.179 120.138,36.792 121.107 C 37.340 121.976,37.328 121.974,38.259 121.292 C 38.665 120.994,39.355 120.504,39.791 120.204 C 40.227 119.904,41.258 119.189,42.083 118.615 C 42.908 118.041,44.333 117.053,45.250 116.420 C 46.167 115.787,47.329 114.981,47.833 114.628 C 49.190 113.679,50.951 112.468,51.598 112.039 L 52.167 111.662 52.167 120.831 L 52.167 130.000 53.250 130.000 L 54.333 130.000 54.334 120.042 L 54.335 110.083 54.793 109.809 C 55.044 109.658,55.512 109.347,55.833 109.118 C 56.402 108.711,63.316 103.913,66.212 101.917 C 67.009 101.367,68.544 100.301,69.623 99.549 C 70.701 98.796,72.296 97.692,73.167 97.095 C 74.037 96.498,75.237 95.668,75.833 95.250 C 76.429 94.832,77.629 94.001,78.500 93.403 C 79.371 92.804,80.946 91.715,82.000 90.983 C 84.967 88.921,85.150 88.795,86.782 87.679 L 88.313 86.631 87.714 85.729 C 87.182 84.928,87.082 84.851,86.817 85.038 C 86.652 85.155,85.670 85.836,84.634 86.553 C 83.598 87.269,82.000 88.378,81.083 89.016 C 80.167 89.655,78.217 91.004,76.750 92.014 C 75.283 93.025,73.296 94.398,72.333 95.065 C 70.267 96.499,66.821 98.880,64.833 100.249 C 64.054 100.785,63.042 101.489,62.583 101.813 C 61.452 102.613,58.305 104.788,56.124 106.279 L 54.330 107.504 54.374 88.794 L 54.417 70.083 53.292 70.083 L 52.166 70.083 52.167 89.609 " stroke="none" fill="#fbf9f9" fill-rule="evenodd"></path><path id="path3" d="M192.250 86.026 C 185.775 86.558,181.947 91.152,181.925 98.417 C 181.902 106.141,185.954 110.557,193.083 110.577 C 200.345 110.597,204.834 105.856,204.833 98.167 C 204.833 90.184,199.874 85.400,192.250 86.026 M151.833 86.326 C 143.613 88.215,139.694 97.079,143.627 104.884 C 146.100 109.792,153.726 112.083,160.217 109.868 L 161.017 109.595 160.914 108.922 C 160.857 108.553,160.745 108.025,160.667 107.750 C 160.588 107.475,160.475 106.871,160.417 106.409 C 160.250 105.081,160.249 105.080,158.616 105.482 C 152.513 106.985,148.175 104.006,148.168 98.308 C 148.162 92.736,152.458 89.579,158.083 91.020 C 160.323 91.593,160.133 91.703,160.679 89.528 C 160.940 88.490,161.198 87.499,161.252 87.326 C 161.589 86.267,155.093 85.577,151.833 86.326 M210.250 86.359 C 209.242 86.438,208.323 86.538,208.208 86.580 C 208.044 86.640,208.000 89.159,208.000 98.411 L 208.000 110.167 210.833 110.167 L 213.667 110.167 213.667 105.562 L 213.667 100.958 215.042 101.031 C 217.392 101.155,218.179 102.010,218.915 105.238 C 219.419 107.447,219.740 108.571,220.192 109.708 L 220.374 110.167 223.330 110.167 L 226.287 110.167 225.903 109.042 C 225.692 108.423,225.321 107.167,225.078 106.250 C 224.276 103.229,224.190 102.923,223.922 102.174 C 223.549 101.129,222.785 100.001,222.066 99.432 L 221.453 98.948 222.084 98.624 C 224.614 97.326,225.866 94.188,225.074 91.131 C 223.989 86.942,219.821 85.600,210.250 86.359 M100.333 86.545 C 100.333 86.662,100.773 88.105,101.310 89.754 C 101.847 91.402,102.566 93.650,102.908 94.750 C 103.251 95.850,103.592 96.900,103.667 97.083 C 103.742 97.267,104.082 98.317,104.423 99.417 C 104.764 100.517,105.324 102.279,105.667 103.333 C 106.010 104.388,106.571 106.150,106.915 107.250 C 107.258 108.350,107.624 109.456,107.727 109.708 L 107.915 110.167 111.167 110.167 L 114.418 110.167 117.539 100.875 C 119.255 95.765,120.857 90.983,121.098 90.250 C 121.339 89.517,121.601 88.767,121.680 88.583 C 121.933 87.999,122.328 86.757,122.331 86.542 C 122.333 86.383,121.632 86.333,119.374 86.333 L 116.414 86.333 116.031 87.542 C 115.709 88.557,114.927 91.187,113.912 94.667 C 113.792 95.079,113.307 96.804,112.835 98.500 C 112.046 101.339,111.801 102.300,111.554 103.542 C 111.401 104.308,111.237 104.065,110.937 102.625 C 110.779 101.869,110.506 100.725,110.330 100.083 C 109.978 98.804,108.094 92.108,107.305 89.333 C 107.031 88.371,106.729 87.302,106.633 86.958 L 106.459 86.333 103.396 86.333 C 101.030 86.333,100.333 86.382,100.333 86.545 M124.500 98.250 L 124.500 110.167 132.250 110.167 L 140.000 110.167 140.000 107.833 L 140.000 105.500 135.167 105.500 L 130.333 105.500 130.333 102.833 L 130.333 100.167 134.671 100.167 L 139.009 100.167 138.963 97.875 L 138.917 95.583 134.625 95.539 L 130.333 95.494 130.333 93.247 L 130.333 91.000 134.917 91.000 L 139.500 91.000 139.500 88.667 L 139.500 86.333 132.000 86.333 L 124.500 86.333 124.500 98.250 M162.833 88.750 L 162.833 91.167 166.000 91.167 L 169.167 91.167 169.167 100.667 L 169.167 110.167 172.083 110.167 L 175.000 110.167 175.000 100.667 L 175.000 91.167 178.167 91.167 L 181.333 91.167 181.333 88.750 L 181.333 86.333 172.083 86.333 L 162.833 86.333 162.833 88.750 M195.627 91.158 C 199.981 93.837,199.894 103.278,195.493 105.575 C 194.576 106.054,192.409 106.123,191.461 105.704 C 186.568 103.539,186.595 93.145,191.500 90.877 C 192.694 90.325,194.469 90.446,195.627 91.158 M218.261 91.029 C 219.276 91.683,219.563 92.224,219.574 93.512 C 219.593 95.702,218.028 96.827,214.958 96.832 L 213.667 96.833 213.667 93.649 L 213.667 90.465 215.625 90.529 C 217.395 90.587,217.649 90.635,218.261 91.029 " stroke="none" fill="#841414" fill-rule="evenodd"></path><path id="path4" d="M52.039 70.667 C 52.039 70.987,52.073 71.119,52.115 70.958 C 52.157 70.798,52.157 70.535,52.115 70.375 C 52.073 70.215,52.039 70.346,52.039 70.667 M54.414 88.667 C 54.414 98.888,54.434 103.069,54.458 97.958 C 54.483 92.848,54.483 84.485,54.458 79.375 C 54.434 74.265,54.414 78.446,54.414 88.667 M52.048 72.083 C 52.049 72.542,52.081 72.709,52.120 72.456 C 52.158 72.203,52.157 71.828,52.117 71.623 C 52.078 71.418,52.046 71.625,52.048 72.083 M52.069 76.083 C 52.070 77.825,52.094 78.515,52.124 77.616 C 52.154 76.718,52.154 75.293,52.124 74.450 C 52.094 73.607,52.069 74.342,52.069 76.083 M52.059 81.250 C 52.059 82.075,52.087 82.434,52.122 82.047 C 52.157 81.660,52.157 80.985,52.123 80.547 C 52.088 80.109,52.060 80.425,52.059 81.250 M52.053 83.833 C 52.053 84.429,52.084 84.673,52.121 84.375 C 52.158 84.077,52.158 83.590,52.121 83.292 C 52.084 82.994,52.053 83.237,52.053 83.833 M52.058 88.500 C 52.058 89.279,52.087 89.598,52.122 89.208 C 52.157 88.819,52.157 88.181,52.122 87.792 C 52.087 87.402,52.058 87.721,52.058 88.500 M52.052 91.250 C 52.053 91.800,52.084 92.005,52.121 91.705 C 52.158 91.406,52.157 90.956,52.119 90.705 C 52.081 90.455,52.051 90.700,52.052 91.250 M52.055 93.417 C 52.055 94.058,52.086 94.300,52.122 93.955 C 52.158 93.609,52.157 93.084,52.120 92.788 C 52.083 92.492,52.054 92.775,52.055 93.417 M52.053 95.833 C 52.053 96.429,52.084 96.673,52.121 96.375 C 52.158 96.077,52.158 95.590,52.121 95.292 C 52.084 94.994,52.053 95.237,52.053 95.833 M357.042 96.791 C 358.119 96.820,359.881 96.820,360.958 96.791 C 362.035 96.762,361.154 96.738,359.000 96.738 C 356.846 96.738,355.965 96.762,357.042 96.791 M52.039 97.500 C 52.039 97.821,52.073 97.952,52.115 97.792 C 52.157 97.631,52.157 97.369,52.115 97.208 C 52.073 97.048,52.039 97.179,52.039 97.500 M52.061 99.917 C 52.061 100.833,52.089 101.187,52.123 100.703 C 52.157 100.218,52.156 99.468,52.122 99.036 C 52.088 98.604,52.060 99.000,52.061 99.917 M52.060 103.167 C 52.060 104.037,52.088 104.394,52.123 103.958 C 52.157 103.523,52.157 102.810,52.123 102.375 C 52.088 101.940,52.060 102.296,52.060 103.167 M52.042 108.250 C 52.044 108.617,52.078 108.747,52.118 108.540 C 52.158 108.332,52.156 108.032,52.115 107.873 C 52.073 107.714,52.040 107.883,52.042 108.250 M238.625 110.290 C 239.290 110.322,240.377 110.322,241.042 110.290 C 241.706 110.259,241.162 110.233,239.833 110.233 C 238.504 110.233,237.960 110.259,238.625 110.290 M265.208 110.290 C 265.827 110.322,266.840 110.322,267.458 110.290 C 268.077 110.258,267.571 110.232,266.333 110.232 C 265.096 110.232,264.590 110.258,265.208 110.290 M278.383 110.291 C 279.097 110.322,280.222 110.322,280.883 110.290 C 281.543 110.259,280.958 110.233,279.583 110.233 C 278.208 110.234,277.668 110.259,278.383 110.291 M286.458 110.290 C 287.123 110.322,288.210 110.322,288.875 110.290 C 289.540 110.259,288.996 110.233,287.667 110.233 C 286.337 110.233,285.794 110.259,286.458 110.290 M301.125 110.290 C 301.790 110.322,302.877 110.322,303.542 110.290 C 304.206 110.259,303.662 110.233,302.333 110.233 C 301.004 110.233,300.460 110.259,301.125 110.290 M309.125 110.290 C 309.698 110.323,310.635 110.323,311.208 110.290 C 311.781 110.258,311.313 110.231,310.167 110.231 C 309.021 110.231,308.552 110.258,309.125 110.290 M322.383 110.291 C 323.097 110.322,324.222 110.322,324.883 110.290 C 325.543 110.259,324.958 110.233,323.583 110.233 C 322.208 110.234,321.668 110.259,322.383 110.291 M353.458 110.291 C 355.315 110.318,358.352 110.318,360.208 110.291 C 362.065 110.265,360.546 110.243,356.833 110.243 C 353.121 110.243,351.602 110.265,353.458 110.291 M54.412 120.167 C 54.412 125.621,54.433 127.852,54.458 125.125 C 54.484 122.398,54.484 117.935,54.458 115.208 C 54.433 112.481,54.412 114.712,54.412 120.167 M48.417 114.360 C 46.583 115.647,44.892 116.824,44.658 116.975 C 44.424 117.126,42.685 118.325,40.794 119.640 L 37.355 122.029 37.981 123.056 C 39.123 124.929,39.819 126.292,39.700 126.424 C 39.636 126.495,39.664 126.508,39.762 126.452 C 39.932 126.355,40.763 127.770,40.697 128.042 C 40.680 128.110,40.730 128.167,40.807 128.167 C 40.884 128.167,41.091 128.444,41.265 128.783 C 41.941 130.092,41.505 130.000,47.037 130.000 L 52.000 130.000 52.000 121.000 C 52.000 116.050,51.944 112.004,51.875 112.010 C 51.806 112.015,50.250 113.073,48.417 114.360 M76.796 129.956 C 77.188 129.991,77.788 129.990,78.129 129.954 C 78.471 129.919,78.150 129.890,77.417 129.890 C 76.683 129.891,76.404 129.920,76.796 129.956 " stroke="none" fill="#ca5d3e" fill-rule="evenodd"></path></g></svg>