<svg id="svg" version="1.1" xmlns="http://www.w3.org/2000/svg" xmlns:xlink="http://www.w3.org/1999/xlink" width="400" height="397.5308641975309" viewBox="0, 0, 400,397.5308641975309"><g id="svgg"><path id="path0" d="M186.679 141.437 C 186.694 141.518,186.693 157.333,186.678 176.583 L 186.650 211.583 182.647 214.333 C 180.445 215.846,178.279 217.346,177.832 217.667 C 177.385 217.987,174.789 219.787,172.062 221.667 C 164.324 226.998,158.264 231.200,158.103 231.345 C 158.021 231.419,158.206 231.835,158.519 232.281 C 159.191 233.237,159.438 233.624,159.695 234.125 C 159.916 234.556,160.115 234.594,160.487 234.273 C 160.632 234.148,161.837 233.300,163.167 232.389 C 164.496 231.478,166.108 230.368,166.750 229.923 C 169.833 227.780,174.680 224.417,178.833 221.536 C 181.354 219.787,184.070 217.901,184.868 217.345 C 185.667 216.789,186.398 216.333,186.493 216.333 C 186.612 216.333,186.667 221.469,186.667 232.667 L 186.667 249.000 188.583 249.000 L 190.500 249.000 190.500 231.258 L 190.500 213.515 192.125 212.368 C 193.019 211.737,200.088 206.832,207.833 201.468 C 215.579 196.103,222.608 191.235,223.453 190.649 C 224.298 190.063,228.294 187.296,232.333 184.500 C 236.372 181.704,241.087 178.436,242.811 177.236 C 244.535 176.037,246.651 174.570,247.514 173.976 C 248.377 173.382,249.585 172.544,250.199 172.114 C 250.812 171.685,251.395 171.333,251.493 171.333 C 251.654 171.333,250.918 170.040,250.638 169.831 C 250.575 169.783,250.306 169.333,250.042 168.829 L 249.560 167.913 244.031 171.748 C 235.141 177.915,229.868 181.565,219.500 188.732 C 214.137 192.439,207.537 197.005,204.833 198.879 C 192.987 207.088,190.692 208.667,190.599 208.667 C 190.545 208.667,190.500 193.554,190.500 175.083 L 190.500 141.500 188.958 141.498 C 188.110 141.496,187.245 141.449,187.035 141.393 C 186.824 141.337,186.665 141.357,186.679 141.437 M264.809 196.344 C 262.694 200.062,261.504 202.222,261.649 202.081 C 261.822 201.912,264.167 198.020,264.167 197.902 C 264.167 197.868,264.434 197.422,264.761 196.911 C 265.088 196.400,265.327 195.897,265.292 195.794 C 265.258 195.690,265.040 195.938,264.809 196.344 M261.096 202.810 C 260.719 203.539,260.773 203.684,261.176 203.023 C 261.364 202.715,261.482 202.426,261.438 202.382 C 261.394 202.338,261.240 202.531,261.096 202.810 " stroke="none" fill="#faf7f7" fill-rule="evenodd"></path><path id="path1" d="M191.792 141.466 L 190.667 141.515 190.667 174.924 C 190.667 193.299,190.713 208.333,190.769 208.333 C 190.825 208.333,191.294 208.029,191.811 207.657 C 193.084 206.740,200.128 201.869,202.500 200.265 C 203.188 199.800,203.825 199.358,203.917 199.283 C 204.008 199.207,204.833 198.630,205.750 198.000 C 206.667 197.370,207.717 196.639,208.083 196.376 C 208.450 196.113,209.725 195.232,210.917 194.419 C 212.108 193.605,214.283 192.104,215.750 191.081 C 217.217 190.059,220.517 187.773,223.083 186.001 C 228.086 182.548,229.474 181.586,230.689 180.734 C 231.113 180.436,233.663 178.672,236.355 176.815 C 239.047 174.958,241.700 173.120,242.250 172.731 C 242.800 172.342,244.112 171.439,245.167 170.725 C 247.215 169.337,249.333 167.822,249.333 167.746 C 249.333 167.720,248.765 166.745,248.071 165.580 C 247.377 164.414,246.394 162.701,245.886 161.772 C 245.378 160.843,244.794 159.821,244.589 159.500 C 244.267 158.997,242.800 156.482,240.505 152.500 C 240.162 151.904,239.204 150.254,238.378 148.833 C 237.551 147.412,236.546 145.615,236.145 144.839 C 235.745 144.064,235.285 143.281,235.125 143.100 C 234.965 142.919,234.833 142.710,234.833 142.635 C 234.833 142.315,234.797 142.243,234.571 142.117 C 234.441 142.043,234.333 141.875,234.333 141.742 C 234.333 141.532,232.051 141.498,217.208 141.484 C 207.790 141.475,198.471 141.456,196.500 141.442 C 194.529 141.428,192.410 141.439,191.792 141.466 M168.000 142.000 C 167.886 142.275,167.727 142.500,167.646 142.500 C 167.566 142.500,167.500 142.565,167.500 142.644 C 167.500 142.723,167.214 143.304,166.865 143.935 C 166.013 145.475,166.107 145.312,163.956 149.000 C 162.914 150.787,161.887 152.550,161.673 152.917 C 161.460 153.283,161.060 153.996,160.784 154.500 C 160.508 155.004,160.154 155.604,159.998 155.833 C 159.842 156.063,159.582 156.531,159.422 156.874 C 159.261 157.216,159.064 157.456,158.984 157.407 C 158.903 157.357,158.882 157.432,158.936 157.575 C 158.991 157.717,158.953 157.833,158.851 157.833 C 158.750 157.833,158.667 157.938,158.667 158.066 C 158.667 158.193,158.553 158.341,158.415 158.394 C 158.277 158.447,158.179 158.549,158.198 158.620 C 158.269 158.885,157.970 159.501,157.817 159.407 C 157.730 159.353,157.678 159.370,157.702 159.446 C 157.787 159.714,157.292 160.661,157.122 160.555 C 157.026 160.497,156.991 160.518,157.043 160.602 C 157.096 160.687,156.921 161.129,156.655 161.586 C 156.389 162.043,156.045 162.657,155.892 162.951 C 155.738 163.245,155.538 163.440,155.447 163.384 C 155.348 163.322,155.335 163.369,155.416 163.500 C 155.501 163.637,155.437 163.800,155.244 163.942 C 155.075 164.066,154.982 164.167,155.038 164.167 C 155.094 164.167,154.951 164.523,154.719 164.958 C 153.938 166.428,153.469 167.167,153.317 167.167 C 153.235 167.167,153.184 167.223,153.206 167.292 C 153.281 167.527,152.795 168.496,152.647 168.405 C 152.566 168.355,152.500 168.454,152.500 168.625 C 152.500 168.797,152.369 169.085,152.208 169.267 C 152.048 169.448,151.894 169.700,151.866 169.826 C 151.787 170.182,150.983 171.500,150.845 171.500 C 150.778 171.500,150.722 171.602,150.722 171.727 C 150.722 172.033,150.012 173.167,149.820 173.167 C 149.736 173.167,149.682 173.223,149.700 173.292 C 149.774 173.574,149.464 174.164,149.296 174.060 C 149.181 173.989,149.164 174.027,149.250 174.166 C 149.334 174.302,149.276 174.463,149.098 174.593 C 148.940 174.709,148.815 174.847,148.820 174.901 C 148.847 175.179,148.085 176.469,147.945 176.383 C 147.855 176.327,147.826 176.353,147.880 176.440 C 148.015 176.660,147.093 178.201,146.920 178.044 C 146.843 177.974,146.831 178.006,146.894 178.116 C 146.958 178.227,146.329 179.487,145.481 180.950 C 144.641 182.398,143.726 183.996,143.448 184.500 C 143.170 185.004,142.477 186.204,141.909 187.167 C 139.564 191.139,137.333 195.120,137.333 195.332 C 137.333 195.421,137.596 195.904,137.917 196.405 C 138.237 196.907,138.500 197.355,138.500 197.401 C 138.500 197.446,139.100 198.508,139.833 199.759 C 140.566 201.010,141.116 202.113,141.057 202.209 C 140.989 202.320,141.030 202.334,141.169 202.248 C 141.331 202.149,141.361 202.189,141.280 202.398 C 141.220 202.555,141.231 202.647,141.305 202.601 C 141.501 202.480,142.040 203.467,141.901 203.693 C 141.830 203.807,141.855 203.840,141.963 203.773 C 142.071 203.706,142.441 204.184,142.881 204.956 C 143.286 205.668,143.928 206.789,144.306 207.448 C 144.685 208.108,145.136 208.895,145.308 209.198 C 145.481 209.502,146.694 211.588,148.005 213.833 C 150.941 218.864,151.061 219.072,151.562 220.000 C 151.785 220.412,152.389 221.461,152.904 222.330 C 153.418 223.199,153.802 224.009,153.755 224.130 C 153.709 224.252,153.740 224.308,153.824 224.256 C 154.003 224.145,155.899 227.283,155.902 227.696 C 155.904 227.850,155.967 227.963,156.044 227.946 C 156.120 227.930,156.547 228.592,156.993 229.417 C 157.977 231.240,157.935 231.229,159.581 230.061 C 160.313 229.541,162.563 227.980,164.581 226.591 C 166.599 225.203,168.625 223.802,169.083 223.479 C 169.893 222.909,172.871 220.842,175.583 218.970 C 176.317 218.463,177.854 217.396,179.000 216.597 C 180.146 215.798,182.302 214.310,183.792 213.290 L 186.500 211.435 186.500 176.467 L 186.500 141.500 177.354 141.500 L 168.207 141.500 168.000 142.000 M247.157 174.459 C 244.815 176.086,241.383 178.467,239.531 179.750 C 237.678 181.033,234.720 183.087,232.956 184.313 C 231.193 185.539,228.977 187.077,228.032 187.730 C 227.087 188.383,225.475 189.501,224.449 190.215 C 223.423 190.930,222.171 191.792,221.668 192.132 C 221.164 192.472,219.248 193.800,217.409 195.083 C 215.571 196.367,213.302 197.942,212.368 198.583 C 211.433 199.225,209.703 200.425,208.524 201.250 C 207.345 202.075,204.153 204.287,201.431 206.167 C 198.708 208.046,195.192 210.484,193.616 211.586 L 190.750 213.588 190.708 231.294 L 190.665 249.000 212.388 249.000 L 234.111 249.000 236.944 244.125 C 238.502 241.444,240.254 238.425,240.836 237.417 C 241.418 236.408,242.418 234.683,243.057 233.583 C 244.610 230.912,245.290 229.733,245.797 228.833 C 246.334 227.880,250.245 221.123,253.756 215.083 C 255.248 212.517,256.615 210.154,256.795 209.833 C 257.639 208.323,264.022 197.288,264.619 196.306 C 264.991 195.695,265.236 195.133,265.163 195.056 C 264.733 194.603,260.684 187.270,260.776 187.111 C 260.837 187.004,260.825 186.972,260.750 187.041 C 260.561 187.212,260.120 186.544,260.266 186.307 C 260.334 186.198,260.312 186.160,260.216 186.220 C 260.037 186.330,258.234 183.229,258.273 182.877 C 258.285 182.763,258.241 182.704,258.175 182.745 C 258.109 182.786,257.792 182.354,257.471 181.785 C 256.744 180.496,253.984 175.740,253.229 174.475 C 252.920 173.957,252.667 173.490,252.667 173.436 C 252.667 173.335,251.516 171.499,251.453 171.501 C 251.433 171.501,249.500 172.833,247.157 174.459 " stroke="none" fill="#b7413f" fill-rule="evenodd"></path><path id="path2" d="M171.500 141.454 C 179.857 141.570,186.795 141.572,186.724 141.458 C 186.682 141.390,182.508 141.350,177.448 141.371 C 172.389 141.392,169.712 141.429,171.500 141.454 M200.294 141.451 C 200.501 141.491,200.801 141.490,200.960 141.448 C 201.120 141.406,200.950 141.374,200.583 141.375 C 200.217 141.377,200.086 141.411,200.294 141.451 M209.875 141.458 C 214.344 141.483,221.656 141.483,226.125 141.458 C 230.594 141.434,226.938 141.413,218.000 141.413 C 209.063 141.413,205.406 141.434,209.875 141.458 M190.541 175.042 C 190.518 193.535,190.544 208.667,190.597 208.667 C 190.689 208.667,195.502 205.357,205.370 198.508 C 207.819 196.808,214.002 192.529,219.110 189.000 C 224.219 185.471,230.670 181.008,233.448 179.083 C 236.225 177.158,240.973 173.868,243.999 171.772 C 247.024 169.676,249.500 167.885,249.500 167.792 C 249.500 167.587,248.509 165.833,248.393 165.833 C 248.348 165.833,248.560 166.286,248.864 166.839 C 249.222 167.491,249.355 167.887,249.240 167.964 C 249.143 168.030,248.243 168.655,247.240 169.353 C 246.237 170.052,244.776 171.065,243.992 171.603 C 242.660 172.520,238.043 175.715,212.873 193.144 C 207.397 196.936,201.980 200.683,200.834 201.472 C 199.689 202.261,196.952 204.156,194.751 205.683 L 190.750 208.459 190.666 174.938 L 190.582 141.417 190.541 175.042 M186.567 145.333 C 186.567 146.754,186.593 147.335,186.624 146.625 C 186.655 145.915,186.655 144.752,186.624 144.042 C 186.593 143.331,186.567 143.912,186.567 145.333 M238.186 148.331 C 238.391 148.697,238.592 148.964,238.632 148.924 C 238.713 148.843,238.020 147.667,237.892 147.667 C 237.848 147.667,237.980 147.966,238.186 148.331 M186.557 149.417 C 186.558 150.150,186.587 150.429,186.622 150.037 C 186.657 149.645,186.657 149.045,186.621 148.704 C 186.585 148.363,186.557 148.683,186.557 149.417 M239.544 150.667 C 240.571 152.535,241.555 154.167,241.617 154.105 C 241.655 154.067,241.399 153.560,241.048 152.977 C 240.697 152.394,240.267 151.642,240.091 151.306 C 239.916 150.970,239.629 150.520,239.452 150.306 C 239.227 150.032,239.254 150.139,239.544 150.667 M186.567 153.333 C 186.567 154.754,186.593 155.335,186.624 154.625 C 186.655 153.915,186.655 152.752,186.624 152.042 C 186.593 151.331,186.567 151.912,186.567 153.333 M242.508 155.849 C 242.700 156.225,242.892 156.497,242.935 156.454 C 243.016 156.373,242.355 155.167,242.230 155.167 C 242.192 155.167,242.317 155.474,242.508 155.849 M186.578 165.917 C 186.578 170.958,186.599 173.045,186.625 170.553 C 186.651 168.062,186.651 163.937,186.625 161.387 C 186.599 158.837,186.578 160.875,186.578 165.917 M243.833 158.064 C 243.833 158.277,244.579 159.497,244.710 159.499 C 244.780 159.499,244.639 159.181,244.396 158.792 C 243.883 157.968,243.833 157.903,243.833 158.064 M244.834 159.716 C 244.833 159.885,246.338 162.500,246.436 162.500 C 246.532 162.500,246.137 161.744,245.417 160.550 C 245.097 160.019,244.834 159.643,244.834 159.716 M247.433 164.334 C 247.683 164.793,247.919 165.136,247.958 165.097 C 248.037 165.018,247.181 163.500,247.057 163.500 C 247.014 163.500,247.184 163.875,247.433 164.334 M250.083 172.183 C 249.442 172.640,248.467 173.322,247.917 173.699 C 244.991 175.703,242.167 177.704,242.167 177.772 C 242.167 177.860,242.394 177.707,247.523 174.154 C 249.599 172.716,251.399 171.499,251.523 171.450 C 251.699 171.380,251.694 171.359,251.500 171.356 C 251.362 171.354,250.725 171.726,250.083 172.183 M186.571 178.833 C 186.571 180.896,186.595 181.740,186.624 180.708 C 186.654 179.677,186.654 177.990,186.624 176.958 C 186.595 175.927,186.571 176.771,186.571 178.833 M240.583 178.771 C 239.320 179.642,238.588 180.231,239.167 179.910 C 239.624 179.657,242.000 177.973,242.000 177.903 C 242.000 177.794,241.992 177.799,240.583 178.771 M256.170 179.375 C 256.168 179.445,256.390 179.857,256.663 180.292 C 256.937 180.727,257.162 181.027,257.163 180.958 C 257.165 180.889,256.943 180.476,256.670 180.041 C 256.397 179.606,256.172 179.306,256.170 179.375 M237.083 181.185 C 235.531 182.272,234.706 182.926,235.343 182.564 C 236.361 181.986,239.112 179.954,238.802 180.009 C 238.773 180.014,238.000 180.544,237.083 181.185 M145.480 180.542 C 145.371 180.748,145.173 181.104,145.040 181.333 C 144.808 181.733,144.810 181.736,145.078 181.417 C 145.411 181.022,145.877 180.167,145.760 180.167 C 145.715 180.167,145.589 180.335,145.480 180.542 M144.189 182.750 C 143.999 183.071,143.903 183.333,143.975 183.333 C 144.046 183.333,144.230 183.071,144.383 182.750 C 144.536 182.429,144.632 182.167,144.597 182.167 C 144.562 182.167,144.378 182.429,144.189 182.750 M186.568 185.333 C 186.568 186.846,186.593 187.465,186.624 186.708 C 186.655 185.952,186.655 184.715,186.624 183.958 C 186.593 183.202,186.568 183.821,186.568 185.333 M229.959 186.131 C 227.232 188.030,224.307 190.062,223.459 190.648 C 217.445 194.799,193.438 211.441,192.124 212.368 L 190.498 213.516 190.541 231.300 L 190.583 249.083 212.417 249.084 L 234.250 249.085 212.458 249.042 L 190.667 248.999 190.667 231.272 L 190.667 213.545 192.042 212.593 C 192.798 212.070,196.736 209.341,200.793 206.529 C 204.851 203.717,210.026 200.133,212.293 198.563 C 214.561 196.994,219.979 193.239,224.333 190.219 C 228.688 187.199,232.835 184.326,233.551 183.834 C 234.660 183.071,235.176 182.648,234.968 182.673 C 234.940 182.676,232.686 184.232,229.959 186.131 M142.628 185.458 C 141.937 186.588,141.462 187.500,141.564 187.500 C 141.623 187.500,142.205 186.526,143.282 184.625 C 143.321 184.556,143.322 184.500,143.284 184.500 C 143.245 184.500,142.950 184.931,142.628 185.458 M140.649 188.875 C 140.264 189.540,139.773 190.363,139.558 190.705 C 139.343 191.047,139.167 191.367,139.167 191.417 C 139.167 191.466,138.992 191.787,138.778 192.129 C 137.742 193.784,137.140 194.862,137.212 194.934 C 137.285 195.007,139.010 192.139,140.330 189.750 C 140.633 189.200,141.027 188.506,141.205 188.208 C 141.382 187.910,141.487 187.667,141.438 187.667 C 141.388 187.667,141.034 188.210,140.649 188.875 M261.417 188.500 C 261.559 188.775,261.713 189.000,261.759 189.000 C 261.804 189.000,261.726 188.775,261.583 188.500 C 261.441 188.225,261.287 188.000,261.241 188.000 C 261.196 188.000,261.274 188.225,261.417 188.500 M186.566 190.417 C 186.566 191.700,186.592 192.203,186.624 191.534 C 186.656 190.866,186.655 189.816,186.623 189.201 C 186.591 188.586,186.565 189.133,186.566 190.417 M262.083 189.667 C 262.226 189.942,262.379 190.167,262.425 190.167 C 262.471 190.167,262.392 189.942,262.250 189.667 C 262.108 189.392,261.954 189.167,261.908 189.167 C 261.862 189.167,261.941 189.392,262.083 189.667 M263.607 192.292 C 264.185 193.299,264.500 193.771,264.500 193.629 C 264.500 193.466,263.332 191.500,263.235 191.500 C 263.190 191.500,263.357 191.856,263.607 192.292 M186.572 196.667 C 186.572 198.821,186.595 199.702,186.624 198.625 C 186.653 197.548,186.653 195.785,186.624 194.708 C 186.595 193.631,186.572 194.512,186.572 196.667 M264.778 196.125 C 264.478 196.626,259.166 205.857,259.014 206.140 C 258.574 206.962,259.016 206.418,259.602 205.417 C 259.951 204.821,260.300 204.333,260.378 204.333 C 260.456 204.333,260.477 204.264,260.425 204.180 C 260.373 204.096,260.425 203.924,260.540 203.798 C 260.656 203.672,260.907 203.272,261.099 202.909 C 261.497 202.159,264.097 197.570,264.660 196.625 C 264.865 196.281,264.992 196.000,264.943 196.000 C 264.893 196.000,264.819 196.056,264.778 196.125 M137.667 196.374 C 137.667 196.540,138.838 198.500,138.937 198.500 C 138.985 198.500,138.783 198.069,138.487 197.542 C 137.944 196.572,137.667 196.178,137.667 196.374 M139.000 198.706 C 139.000 198.852,140.032 200.500,140.124 200.500 C 140.209 200.500,139.365 199.000,139.145 198.758 C 139.065 198.671,139.000 198.648,139.000 198.706 M186.500 206.159 L 186.500 211.484 185.750 212.000 C 184.731 212.701,184.796 212.803,185.830 212.126 L 186.661 211.583 186.664 206.208 C 186.665 203.252,186.629 200.833,186.583 200.833 C 186.537 200.833,186.500 203.230,186.500 206.159 M142.503 204.699 C 142.499 204.850,143.178 206.000,143.271 206.000 C 143.310 206.000,143.230 205.794,143.094 205.542 C 142.754 204.914,142.506 204.560,142.503 204.699 M143.516 206.542 C 143.623 206.748,143.954 207.329,144.250 207.833 C 144.547 208.338,145.218 209.481,145.740 210.375 C 146.263 211.269,146.729 212.000,146.776 212.000 C 146.870 212.000,146.670 211.639,144.764 208.375 C 144.055 207.160,143.440 206.167,143.398 206.167 C 143.356 206.167,143.409 206.335,143.516 206.542 M257.368 208.958 C 256.640 210.219,255.459 212.262,254.745 213.500 C 254.030 214.737,253.097 216.350,252.672 217.083 C 248.203 224.793,248.273 224.667,248.455 224.667 C 248.528 224.667,248.662 224.520,248.752 224.340 C 249.309 223.234,250.126 221.803,250.608 221.086 C 250.915 220.628,251.167 220.160,251.167 220.044 C 251.167 219.928,251.223 219.833,251.293 219.833 C 251.362 219.833,251.523 219.590,251.650 219.292 C 251.778 218.994,251.973 218.637,252.084 218.500 C 252.195 218.362,252.561 217.743,252.897 217.123 C 253.233 216.504,253.843 215.429,254.254 214.735 C 254.664 214.040,255.000 213.404,255.000 213.320 C 255.000 213.235,255.059 213.167,255.130 213.167 C 255.202 213.167,255.349 212.960,255.457 212.708 C 255.566 212.456,255.732 212.137,255.826 212.000 C 255.921 211.862,256.570 210.737,257.269 209.500 C 257.969 208.262,258.588 207.213,258.645 207.167 C 258.770 207.067,258.864 206.667,258.763 206.667 C 258.724 206.667,258.096 207.698,257.368 208.958 M146.833 212.199 C 146.833 212.367,149.003 216.000,149.103 216.000 C 149.153 216.000,149.044 215.756,148.860 215.458 C 148.677 215.160,148.262 214.447,147.937 213.872 C 147.292 212.728,146.833 212.033,146.833 212.199 M178.167 217.240 C 174.546 219.753,171.246 222.045,170.833 222.334 C 170.421 222.624,169.110 223.532,167.920 224.352 C 166.730 225.173,165.680 225.928,165.586 226.031 C 165.366 226.273,173.109 220.984,177.833 217.665 C 178.246 217.375,179.933 216.203,181.583 215.060 C 184.401 213.108,185.006 212.662,184.825 212.670 C 184.784 212.672,181.787 214.728,178.167 217.240 M186.085 216.498 C 186.026 216.593,186.093 216.621,186.241 216.564 C 186.474 216.474,186.500 218.098,186.500 232.731 L 186.500 248.997 177.458 249.042 L 168.417 249.086 177.542 249.126 L 186.667 249.167 186.667 232.750 C 186.667 215.917,186.654 215.576,186.085 216.498 M150.411 218.417 C 150.668 218.875,150.955 219.325,151.050 219.417 C 151.144 219.508,151.012 219.208,150.755 218.750 C 150.499 218.292,150.212 217.842,150.117 217.750 C 150.023 217.658,150.155 217.958,150.411 218.417 M151.667 220.529 C 151.667 220.615,153.601 224.058,153.992 224.667 C 154.080 224.804,154.449 225.442,154.813 226.083 C 155.176 226.725,155.599 227.400,155.752 227.583 C 156.079 227.974,155.886 227.618,153.624 223.667 C 152.053 220.920,151.667 220.302,151.667 220.529 M177.583 222.431 L 177.083 222.861 177.625 222.502 C 177.923 222.305,178.167 222.112,178.167 222.072 C 178.167 221.947,178.096 221.991,177.583 222.431 M247.728 225.625 C 247.479 226.060,246.773 227.279,246.160 228.333 C 244.074 231.918,242.551 234.582,242.347 235.000 L 242.144 235.417 242.484 235.000 C 242.671 234.771,243.051 234.171,243.328 233.667 C 243.606 233.162,244.049 232.375,244.313 231.917 C 244.576 231.458,245.142 230.467,245.570 229.714 C 245.997 228.961,246.420 228.299,246.509 228.244 C 246.599 228.189,246.629 228.074,246.576 227.988 C 246.523 227.903,246.552 227.833,246.639 227.833 C 246.726 227.833,246.844 227.646,246.902 227.417 C 246.959 227.188,247.080 227.000,247.170 227.000 C 247.260 227.000,247.333 226.905,247.333 226.789 C 247.333 226.672,247.508 226.316,247.721 225.997 C 248.119 225.402,248.378 224.833,248.252 224.833 C 248.213 224.833,247.977 225.190,247.728 225.625 M173.042 225.517 C 172.652 225.792,172.333 226.055,172.333 226.100 C 172.333 226.146,172.671 225.950,173.083 225.667 C 173.496 225.383,173.833 225.117,173.833 225.075 C 173.833 224.961,173.802 224.978,173.042 225.517 M163.587 227.345 C 162.672 227.986,161.847 228.595,161.753 228.699 C 161.551 228.924,164.808 226.720,165.161 226.393 C 165.644 225.945,165.222 226.201,163.587 227.345 M169.417 228.098 L 168.917 228.528 169.458 228.169 C 169.756 227.972,170.000 227.778,170.000 227.739 C 170.000 227.614,169.929 227.657,169.417 228.098 M159.763 229.998 C 158.853 230.632,158.047 231.112,157.971 231.065 C 157.895 231.019,157.833 231.068,157.833 231.175 C 157.833 231.282,157.949 231.324,158.093 231.269 C 158.411 231.147,161.500 229.003,161.500 228.904 C 161.500 228.789,161.486 228.798,159.763 229.998 M167.250 229.598 L 166.750 230.028 167.292 229.669 C 167.590 229.472,167.833 229.278,167.833 229.239 C 167.833 229.114,167.763 229.157,167.250 229.598 M165.866 230.514 C 165.481 230.797,165.167 231.065,165.167 231.108 C 165.167 231.152,165.504 230.945,165.917 230.649 C 166.591 230.164,166.768 230.000,166.616 230.000 C 166.588 230.000,166.251 230.231,165.866 230.514 M162.708 232.683 C 162.319 232.959,162.000 233.222,162.000 233.267 C 162.000 233.312,162.337 233.117,162.750 232.833 C 163.162 232.550,163.500 232.283,163.500 232.242 C 163.500 232.127,163.468 232.145,162.708 232.683 M161.042 233.850 C 160.652 234.126,160.333 234.389,160.333 234.434 C 160.333 234.479,160.671 234.284,161.083 234.000 C 161.496 233.716,161.833 233.450,161.833 233.409 C 161.833 233.294,161.802 233.312,161.042 233.850 M160.003 235.064 C 160.000 235.237,160.660 236.333,160.768 236.333 C 160.809 236.333,160.730 236.127,160.594 235.875 C 160.232 235.207,160.005 234.896,160.003 235.064 M241.365 236.625 C 241.007 237.244,239.890 239.175,238.882 240.917 C 237.874 242.658,236.598 244.871,236.046 245.833 C 235.494 246.796,234.876 247.865,234.672 248.208 C 234.467 248.552,234.383 248.833,234.484 248.833 C 234.584 248.833,234.667 248.757,234.667 248.663 C 234.667 248.509,236.289 245.666,236.616 245.245 C 236.690 245.151,236.936 244.719,237.163 244.287 C 237.390 243.854,237.634 243.500,237.705 243.500 C 237.776 243.500,237.815 243.437,237.792 243.360 C 237.752 243.228,239.539 240.068,240.168 239.157 C 240.331 238.922,240.695 238.284,240.977 237.740 C 241.668 236.409,242.050 235.775,242.250 235.628 C 242.354 235.551,242.342 235.504,242.216 235.503 C 242.105 235.501,241.722 236.006,241.365 236.625 M161.424 237.583 C 161.673 238.042,161.951 238.492,162.040 238.583 C 162.292 238.841,161.562 237.460,161.248 237.083 C 161.095 236.900,161.174 237.125,161.424 237.583 M162.667 239.705 C 162.667 239.859,163.859 241.833,163.952 241.833 C 163.996 241.833,163.791 241.402,163.498 240.875 C 162.970 239.928,162.667 239.501,162.667 239.705 " stroke="none" fill="#cf8281" fill-rule="evenodd"></path><path id="path3" d="M195.125 141.454 C 195.423 141.491,195.910 141.491,196.208 141.454 C 196.506 141.417,196.262 141.387,195.667 141.387 C 195.071 141.387,194.827 141.417,195.125 141.454 M186.292 222.875 C 186.315 226.381,186.354 230.825,186.379 232.750 C 186.404 234.675,186.441 231.806,186.462 226.375 C 186.483 220.944,186.444 216.500,186.375 216.500 C 186.306 216.500,186.269 219.369,186.292 222.875 M160.085 234.663 C 159.987 234.823,160.264 235.500,160.428 235.500 C 160.474 235.500,160.431 235.348,160.331 235.163 C 160.232 234.978,160.197 234.753,160.252 234.663 C 160.308 234.573,160.316 234.500,160.270 234.500 C 160.224 234.500,160.141 234.573,160.085 234.663 M160.822 236.311 C 160.913 236.483,160.950 236.661,160.904 236.707 C 160.857 236.754,160.936 236.837,161.078 236.892 C 161.312 236.981,161.312 236.943,161.081 236.496 C 160.940 236.223,160.787 236.000,160.740 236.000 C 160.693 236.000,160.730 236.140,160.822 236.311 M186.409 242.917 C 186.409 246.308,186.431 247.672,186.458 245.947 C 186.485 244.223,186.485 241.448,186.458 239.781 C 186.431 238.114,186.409 239.525,186.409 242.917 M163.906 241.646 C 164.042 241.909,164.108 242.170,164.053 242.225 C 163.998 242.280,164.075 242.373,164.225 242.430 C 164.375 242.488,164.466 242.587,164.427 242.650 C 164.387 242.714,164.416 242.864,164.490 242.984 C 164.581 243.131,164.661 243.144,164.735 243.024 C 164.796 242.926,164.693 242.693,164.506 242.506 C 164.319 242.319,164.206 242.167,164.254 242.167 C 164.302 242.167,164.226 241.942,164.083 241.667 C 163.941 241.392,163.787 241.167,163.741 241.167 C 163.696 241.167,163.770 241.382,163.906 241.646 M164.950 243.495 C 164.997 243.675,165.152 243.919,165.294 244.036 C 165.512 244.217,165.508 244.166,165.271 243.708 C 164.955 243.096,164.823 243.008,164.950 243.495 M165.718 244.750 C 165.859 245.025,166.099 245.400,166.252 245.583 C 166.404 245.767,166.360 245.617,166.154 245.250 C 165.700 244.441,165.360 244.051,165.718 244.750 " stroke="none" fill="#d48168" fill-rule="evenodd"></path><path id="path4" d="M191.121 141.454 C 191.417 141.490,191.942 141.491,192.288 141.455 C 192.634 141.419,192.392 141.389,191.750 141.388 C 191.108 141.387,190.825 141.417,191.121 141.454 M184.038 218.138 C 182.913 218.933,181.376 220.009,180.622 220.530 C 177.589 222.624,172.664 226.045,171.259 227.034 C 170.440 227.611,169.052 228.575,168.176 229.175 C 164.983 231.363,160.413 234.542,160.270 234.675 C 160.115 234.818,161.084 236.592,164.450 242.333 C 166.393 245.646,167.249 247.199,167.185 247.298 C 167.169 247.324,167.263 247.453,167.394 247.585 C 167.526 247.717,167.797 248.089,167.997 248.412 L 168.361 249.000 177.347 249.000 L 186.333 249.000 186.359 242.875 C 186.373 239.506,186.382 236.600,186.379 236.417 C 186.375 236.233,186.364 231.715,186.353 226.375 C 186.342 221.035,186.277 216.672,186.208 216.679 C 186.140 216.686,185.163 217.343,184.038 218.138 " stroke="none" fill="#cb5c36" fill-rule="evenodd"></path></g></svg>